<svg width="14" height="10" viewBox="0 0 14 10" fill="none" xmlns="http://www.w3.org/2000/svg">
<path d="M5.58047 9.27956C5.4492 9.27983 5.31918 9.25417 5.19785 9.20406C5.07653 9.15395 4.96629 9.08038 4.87347 8.98756L0.63147 4.74456C0.535897 4.65238 0.459639 4.54209 0.407145 4.42013C0.354652 4.29816 0.326974 4.16696 0.325728 4.03418C0.324481 3.9014 0.34969 3.76971 0.399884 3.64678C0.450078 3.52385 0.524252 3.41214 0.618077 3.31819C0.711902 3.22423 0.8235 3.1499 0.94636 3.09953C1.06922 3.04916 1.20088 3.02377 1.33366 3.02482C1.46644 3.02588 1.59768 3.05337 1.71972 3.1057C1.84176 3.15802 1.95216 3.23412 2.04447 3.32956L5.57947 6.86456L11.9445 0.501562C12.132 0.313921 12.3863 0.208453 12.6516 0.208359C12.9169 0.208265 13.1713 0.313553 13.359 0.501061C13.5466 0.68857 13.6521 0.942938 13.6522 1.20821C13.6523 1.47348 13.547 1.72792 13.3595 1.91556L6.28747 8.98756C6.19465 9.08038 6.08441 9.15395 5.96309 9.20406C5.84176 9.25417 5.71174 9.27983 5.58047 9.27956Z" fill="#2FAB73"/>
</svg>
