<svg width="35" height="37" viewBox="0 0 35 37" fill="none" xmlns="http://www.w3.org/2000/svg">
<path d="M31.1473 14.1702L31.1255 14.1484C31.1238 14.1472 31.1224 14.1456 31.1215 14.1437L17.5006 0.522461L3.87983 14.1433C3.87826 14.1449 3.8758 14.1481 3.8758 14.1481L3.85333 14.1698C1.77053 16.2643 0.447586 18.995 0.0948177 21.9277C-0.25795 24.8604 0.379698 27.8269 1.90639 30.3556C3.43309 32.8843 5.76122 34.8302 8.52069 35.8837C11.2802 36.9372 14.3126 37.0381 17.136 36.1702C17.3735 36.0976 17.6275 36.0976 17.8651 36.1702C20.6882 37.0378 23.7205 36.9368 26.4798 35.8832C29.2391 34.8295 31.567 32.8838 33.0936 30.3552C34.6202 27.8267 35.2579 24.8604 34.9053 21.9278C34.5526 18.9953 33.2299 16.2647 31.1473 14.1702ZM8.7232 23.1523C8.65689 23.2186 8.6043 23.2974 8.56844 23.3839C8.53257 23.4704 8.5141 23.5633 8.51412 23.657C8.53835 26.0611 9.21776 28.4129 10.4792 30.4595C10.5079 30.506 10.5211 30.5603 10.517 30.6147C10.513 30.669 10.4918 30.7207 10.4566 30.7624C10.4213 30.8041 10.3738 30.8334 10.3209 30.8465C10.2679 30.8595 10.2122 30.8554 10.1616 30.8349C9.21332 30.436 8.35182 29.8561 7.62531 29.1278C6.13646 27.6387 5.29946 25.6195 5.2981 23.5137C5.29675 21.408 6.13117 19.3877 7.61812 17.8967L17.5006 8.01519L27.3826 17.8967C28.8698 19.3875 29.7045 21.4078 29.703 23.5137C29.7018 25.6195 28.8647 27.6387 27.3757 29.1278C26.6492 29.8561 25.7877 30.436 24.8396 30.8349C24.7889 30.8554 24.7332 30.8595 24.6802 30.8465C24.6273 30.8334 24.5798 30.8039 24.5445 30.7624C24.5093 30.7207 24.488 30.669 24.484 30.6145C24.4799 30.5601 24.4931 30.5058 24.5218 30.4594C25.7835 28.4129 26.4633 26.0611 26.4879 23.657C26.4879 23.5633 26.4692 23.4704 26.4332 23.3837C26.3971 23.297 26.3444 23.2184 26.2779 23.1521L21.6037 18.1942C21.5571 18.1553 21.4985 18.134 21.4378 18.134C21.3773 18.134 21.3186 18.1553 21.2721 18.1942C21.2255 18.2329 21.1942 18.2869 21.1833 18.3465C21.1724 18.4061 21.1828 18.4675 21.2127 18.5203C23.0281 21.8054 21.467 26.5242 18.8637 29.1278L18.85 29.1415C18.4907 29.497 18.0056 29.6962 17.5002 29.6961C16.9948 29.6959 16.5098 29.4963 16.1508 29.1406L16.1382 29.1278C13.5339 26.5242 11.9736 21.806 13.7893 18.521C13.8192 18.4682 13.8296 18.4068 13.8187 18.3472C13.8079 18.2876 13.7764 18.2336 13.7299 18.1949C13.6834 18.156 13.6247 18.1348 13.5642 18.1348C13.5036 18.1348 13.4449 18.156 13.3984 18.1949L8.7232 23.1523Z" fill="#F53838"/>
</svg>
