<svg width="510" height="338" viewBox="0 0 510 338" fill="none" xmlns="http://www.w3.org/2000/svg">
<path d="M380.649 216.659L340.927 193.341L309.726 239.773C327.954 254.985 358.577 266.048 374.401 262.67C406.875 255.737 472.498 163.534 481.604 156.514C512.602 132.617 522.678 123.548 483.89 142.117C446.909 159.821 466.496 142.117 457.436 142.117C446.551 142.877 450.158 152.538 454.198 159.46L380.649 216.659Z" fill="url(#paint0_linear)"/>
<path d="M155.267 181.334C166.474 173.552 210.756 159.534 230.204 153.497L250.779 155.742C263.743 158.956 291.549 164.435 304.34 169.621C317.131 174.806 340.343 191.343 361.998 205.133L356.885 222.841C352.293 238.744 340.15 251.356 324.432 256.547C320.387 282.269 316.899 324.086 317.475 337.05L166.989 336.933L160.1 273.285L129.111 276.605L102.934 256.547C135.711 199.853 141.259 191.062 155.267 181.334Z" fill="url(#paint1_linear)"/>
<path d="M112.216 327.588C64.5352 321.543 95.5463 273.218 104 257.259C114.225 265.866 126.851 271.117 140.164 272.3L156.595 273.759L149.867 289.281L222.506 306.287L232.697 334.558C225.438 333.322 171.509 335.107 112.216 327.588Z" fill="url(#paint2_linear)"/>
<path d="M235.275 26.6233C237.622 22.3796 244.352 16.4385 252.499 26.6233H235.275Z" fill="#30235B"/>
<ellipse cx="239.187" cy="172.006" rx="25.9725" ry="18.5082" fill="#CF0606"/>
<path d="M217.906 171.011L221.536 134.862H256.881L260.941 171.011C259.522 175.268 252.822 183.904 240.416 183.904C224.603 183.904 218.919 175.268 217.906 171.011Z" fill="url(#paint3_linear)"/>
<mask id="mask0" mask-type="alpha" maskUnits="userSpaceOnUse" x="217" y="134" width="44" height="50">
<path d="M217.906 171.011L221.536 134.862H256.881L260.949 171.084C259.53 175.341 252.807 183.905 240.4 183.905C224.588 183.905 218.919 175.268 217.906 171.011Z" fill="url(#paint4_linear)"/>
</mask>
<g mask="url(#mask0)">
<path opacity="0.1" d="M269.619 136.246C237.66 175.788 219.801 143.994 210.576 139.225L216.915 112.493L254.757 107.974L269.619 136.246Z" fill="black"/>
</g>
<path d="M238.574 149.374C200.457 149.374 193.902 94.6594 205.679 69.633C232.177 37.2458 265.301 56.1383 278.55 69.633C281.74 90.4884 285.257 149.374 238.574 149.374Z" fill="url(#paint5_linear)"/>
<path d="M279.201 107.516L271.733 102.015L272.888 97.9193L281.418 103.544L279.201 107.516Z" fill="#111111"/>
<path d="M201.396 105.921L208.864 100.419L207.709 96.324L199.179 101.948L201.396 105.921Z" fill="#111111"/>
<path d="M208.23 72.9214C235.253 90.5278 265.212 80.2574 276.813 72.9214C274.37 80.6254 277.831 95.4339 279.866 101.875C297.45 78.9767 291.701 66.6116 286.629 63.2913C285.784 51.8788 275.409 23.3446 240.58 24.6972C205.751 26.0498 198.992 50.7516 199.979 59.9098C186.791 77.8317 194.637 95.3541 200.998 101.875C208.23 87.835 208.065 77.9856 208.23 72.9214Z" fill="#30235B"/>
<g filter="url(#filter0_d)">
<path d="M243.348 42.3179C203.005 40.9675 194.019 67.4988 192.813 82.9054C192.716 84.1389 191.707 85.1105 190.47 85.1105C189.149 85.1105 188.097 84.0095 188.215 82.6945C189.975 62.9405 200.507 28.4217 243.348 30.8017C286.604 33.2048 295.066 67.6402 293.739 86.8359C293.668 87.8629 292.8 88.6394 291.77 88.6394C290.647 88.6394 289.746 87.7283 289.701 86.606C289.065 70.6791 278.477 43.3361 243.348 42.3179Z" fill="#FCFFFF"/>
</g>
<g filter="url(#filter1_d)">
<rect x="294.546" y="94.9391" width="5.4757" height="21.0131" rx="2.73785" transform="rotate(10.0542 294.546 94.9391)" fill="#24C28A"/>
</g>
<g filter="url(#filter2_d)">
<rect x="282.782" y="81.3162" width="16.8668" height="43.7733" rx="8.43338" transform="rotate(10.0542 282.782 81.3162)" fill="#FCFFFF"/>
</g>
<g filter="url(#filter3_d)">
<rect width="5.4757" height="21.0131" rx="2.73785" transform="matrix(-0.984643 0.17458 0.17458 0.984643 185.636 94.9391)" fill="#24C28A"/>
</g>
<g filter="url(#filter4_d)">
<rect width="16.8668" height="43.7733" rx="8.43338" transform="matrix(-0.984643 0.17458 0.17458 0.984643 197.247 81.3162)" fill="#FCFFFF"/>
</g>
<mask id="mask1" mask-type="alpha" maskUnits="userSpaceOnUse" x="181" y="82" width="23" height="45">
<rect width="16.8668" height="43.7733" rx="8.43338" transform="matrix(-0.984643 0.17458 0.17458 0.984643 197.247 81.3162)" fill="white"/>
</mask>
<g mask="url(#mask1)">
<rect x="189.305" y="81.3162" width="21.9399" height="47.5168" transform="rotate(-10.0977 189.305 81.3162)" fill="#E8E8E8"/>
</g>
<mask id="mask2" mask-type="alpha" maskUnits="userSpaceOnUse" x="276" y="82" width="23" height="45">
<rect x="282.782" y="81.3162" width="16.8668" height="43.7733" rx="8.43338" transform="rotate(10.0542 282.782 81.3162)" fill="white"/>
</mask>
<g mask="url(#mask2)">
<rect width="21.9399" height="47.5168" transform="matrix(-0.98451 -0.175326 -0.175326 0.98451 291.748 81.3162)" fill="#E8E8E8"/>
</g>
<path opacity="0.5" d="M222.149 113.907C216.757 113.907 214.041 109.657 213.351 107.76C212.557 106.173 211.931 102.038 213.81 98.7533C216.199 94.577 227.428 93.4124 231.362 99.3124C235.295 105.212 231.362 113.907 222.149 113.907Z" fill="#E6FCFF"/>
<path opacity="0.5" d="M257.88 113.907C263.273 113.907 265.988 109.657 266.678 107.76C267.472 106.173 268.099 102.038 266.22 98.7533C263.831 94.577 252.601 93.4124 248.668 99.3124C244.734 105.212 248.668 113.907 257.88 113.907Z" fill="#E6FCFF"/>
<path fill-rule="evenodd" clip-rule="evenodd" d="M234.147 98.0104C225.353 90.287 217.409 93.5549 212.702 95.4912C212.179 95.7065 211.695 95.9054 211.255 96.0708L208.308 96.0763C207.753 96.0774 207.305 96.5302 207.31 97.0852L207.332 99.5628C207.337 100.112 207.783 100.554 208.332 100.554L210.463 100.554C208.919 113.805 218.691 117.351 226.506 114.962C233.474 112.833 235.339 106.808 235.712 103.028C237.202 99.7254 243.736 101.251 243.995 102.954C244.001 102.994 244.008 103.039 244.015 103.088L244.015 103.088C244.322 105.162 245.867 115.611 257.63 115.625C267.265 115.637 269.878 107.03 269.98 102.724L272.475 102.702C273.027 102.697 273.471 102.246 273.466 101.693L273.439 98.6622C273.434 98.1099 272.982 97.6662 272.43 97.6711L269.936 97.6932C263.66 91.335 250.178 91.9305 245.429 97.9104C240.19 96.7021 235.725 97.4736 234.147 98.0104ZM222.149 113.907C216.757 113.907 214.041 109.657 213.351 107.76C212.558 106.173 211.931 102.038 213.81 98.7532C216.199 94.577 227.428 93.4124 231.362 99.3124C235.295 105.212 231.362 113.907 222.149 113.907ZM266.679 107.76C265.989 109.657 263.274 113.907 257.881 113.907C248.669 113.907 244.736 105.212 248.669 99.3124C252.602 93.4123 263.832 94.577 266.221 98.7532C268.1 102.038 267.473 106.173 266.679 107.76Z" fill="#111111"/>
<path d="M163.801 331.687C163.801 331.132 164.251 330.683 164.806 330.683H319.198C320.169 330.683 320.956 331.47 320.956 332.441C320.956 335.353 318.595 337.715 315.682 337.715H169.829C166.5 337.715 163.801 335.016 163.801 331.687Z" fill="#B4B4B4"/>
<rect x="163.801" y="228.147" width="157.155" height="105.147" rx="2.94666" fill="url(#paint6_linear)"/>
<circle cx="242.378" cy="280.721" r="11.1765" fill="#FCFFFF"/>
<path fill-rule="evenodd" clip-rule="evenodd" d="M130.715 92.8754C130.915 89.4666 131.594 86.6131 132.161 85.0271C133.273 87.809 133.823 90.4798 134.009 92.9155C136.445 93.1014 139.116 93.6515 141.897 94.7642C140.311 95.3306 137.458 96.0102 134.049 96.2095C133.859 99.8283 132.929 102.64 132.161 104.08C131.226 101.463 130.799 98.7717 130.688 96.2365C128.153 96.1253 125.461 95.6988 122.844 94.7642C124.285 93.9961 127.096 93.0655 130.715 92.8754Z" fill="url(#paint7_linear)"/>
<path fill-rule="evenodd" clip-rule="evenodd" d="M103.828 70.4487C103.96 68.1798 104.413 66.2804 104.79 65.2247C105.53 67.0764 105.896 68.8542 106.02 70.4754C107.641 70.5992 109.419 70.9653 111.271 71.706C110.215 72.083 108.316 72.5354 106.047 72.668C105.92 75.0768 105.301 76.9484 104.79 77.907C104.167 76.1652 103.884 74.3735 103.81 72.686C102.122 72.612 100.33 72.3281 98.5885 71.706C99.5471 71.1947 101.419 70.5753 103.828 70.4487Z" fill="url(#paint8_linear)"/>
<path fill-rule="evenodd" clip-rule="evenodd" d="M60.5044 54.471C60.7037 51.0623 61.3833 48.2088 61.9497 46.6228C63.0625 49.4047 63.6125 52.0755 63.7985 54.5111C66.234 54.697 68.9048 55.2471 71.6866 56.3598C70.1006 56.9262 67.2472 57.6058 63.8385 57.8051C63.6484 61.424 62.7178 64.2357 61.9497 65.6758C61.0152 63.059 60.5887 60.3673 60.4774 57.8321C57.9422 57.7209 55.2505 57.2944 52.6336 56.3598C54.0738 55.5917 56.8855 54.6611 60.5044 54.471Z" fill="url(#paint9_linear)"/>
<path fill-rule="evenodd" clip-rule="evenodd" d="M64.2134 132.812C64.5066 127.797 65.5065 123.599 66.3398 121.265C67.9769 125.358 68.7862 129.287 69.0598 132.871C72.643 133.144 76.5724 133.954 80.6651 135.591C78.3317 136.424 74.1337 137.424 69.1187 137.717C68.839 143.041 67.4698 147.178 66.3398 149.297C64.9648 145.447 64.3374 141.487 64.1737 137.757C60.4438 137.593 56.4836 136.966 52.6336 135.591C54.7524 134.461 58.8892 133.091 64.2134 132.812Z" fill="url(#paint10_linear)"/>
<circle cx="94.6823" cy="103.157" r="1.8414" fill="#2F235A"/>
<circle cx="136.94" cy="50.3597" r="1.8414" fill="#FE9076"/>
<circle cx="44.3205" cy="95.8467" r="1.8414" fill="#FFA400"/>
<circle cx="126.847" cy="131.557" r="1.8414" fill="#23BB86"/>
<path d="M132.428 42.6746C128.265 36.9568 116.538 24.7439 102.934 21.6345" stroke="#FE9076" stroke-width="1.60277" stroke-linecap="round"/>
<path d="M36.5511 90.9112C30.3979 87.4236 14.6733 81.1452 1.00001 83.9325" stroke="#FFA400" stroke-width="1.60277" stroke-linecap="round"/>
<path d="M120.527 136.906C117.374 139.688 109.788 147.59 104.669 156.937" stroke="#23BB86" stroke-width="1.60277" stroke-linecap="round"/>
<path fill-rule="evenodd" clip-rule="evenodd" d="M348.065 92.8754C347.866 89.4666 347.186 86.6131 346.62 85.0271C345.507 87.809 344.957 90.4798 344.771 92.9155C342.335 93.1014 339.664 93.6515 336.883 94.7642C338.469 95.3306 341.322 96.0102 344.731 96.2095C344.921 99.8283 345.851 102.64 346.62 104.08C347.554 101.463 347.981 98.7717 348.092 96.2365C350.627 96.1253 353.319 95.6988 355.936 94.7642C354.496 93.9961 351.684 93.0655 348.065 92.8754Z" fill="url(#paint11_linear)"/>
<path fill-rule="evenodd" clip-rule="evenodd" d="M374.953 70.4487C374.82 68.1798 374.368 66.2804 373.991 65.2247C373.25 67.0764 372.884 68.8542 372.76 70.4754C371.139 70.5992 369.361 70.9653 367.509 71.706C368.565 72.083 370.464 72.5354 372.733 72.668C372.86 75.0768 373.479 76.9484 373.991 77.907C374.613 76.1652 374.896 74.3735 374.971 72.686C376.658 72.612 378.45 72.3281 380.192 71.706C379.233 71.1947 377.361 70.5753 374.953 70.4487Z" fill="url(#paint12_linear)"/>
<path fill-rule="evenodd" clip-rule="evenodd" d="M418.276 54.471C418.076 51.0623 417.397 48.2088 416.83 46.6228C415.718 49.4047 415.168 52.0755 414.982 54.5111C412.546 54.697 409.875 55.2471 407.093 56.3598C408.679 56.9262 411.533 57.6058 414.942 57.8051C415.132 61.424 416.062 64.2357 416.83 65.6758C417.765 63.059 418.191 60.3673 418.303 57.8321C420.838 57.7209 423.53 57.2944 426.146 56.3598C424.706 55.5917 421.895 54.6611 418.276 54.471Z" fill="url(#paint13_linear)"/>
<path fill-rule="evenodd" clip-rule="evenodd" d="M414.567 132.812C414.273 127.797 413.274 123.599 412.44 121.265C410.803 125.358 409.994 129.287 409.72 132.871C406.137 133.144 402.208 133.954 398.115 135.591C400.448 136.424 404.646 137.424 409.661 137.717C409.941 143.041 411.31 147.178 412.44 149.297C413.815 145.447 414.443 141.487 414.606 137.757C418.336 137.593 422.296 136.966 426.146 135.591C424.028 134.461 419.891 133.091 414.567 132.812Z" fill="url(#paint14_linear)"/>
<circle r="1.8414" transform="matrix(-1 0 0 1 384.098 103.157)" fill="#2F235A"/>
<circle r="1.8414" transform="matrix(-1 0 0 1 341.84 50.3597)" fill="#FE9076"/>
<circle r="1.8414" transform="matrix(-1 0 0 1 434.46 95.8467)" fill="#FFA400"/>
<circle r="1.8414" transform="matrix(-1 0 0 1 351.933 131.557)" fill="#23BB86"/>
<path d="M346.352 42.6746C350.515 36.9568 362.242 24.7439 375.846 21.6345" stroke="#FE9076" stroke-width="1.60277" stroke-linecap="round"/>
<path d="M442.229 90.9112C448.382 87.4236 464.107 81.1452 477.78 83.9325" stroke="#FFA400" stroke-width="1.60277" stroke-linecap="round"/>
<path d="M358.253 136.906C361.406 139.688 368.992 147.59 374.111 156.937" stroke="#23BB86" stroke-width="1.60277" stroke-linecap="round"/>
<defs>
<filter id="filter0_d" x="154.206" y="0.684814" width="173.661" height="125.955" filterUnits="userSpaceOnUse" color-interpolation-filters="sRGB">
<feFlood flood-opacity="0" result="BackgroundImageFix"/>
<feColorMatrix in="SourceAlpha" type="matrix" values="0 0 0 0 0 0 0 0 0 0 0 0 0 0 0 0 0 0 127 0"/>
<feOffset dy="4"/>
<feGaussianBlur stdDeviation="17"/>
<feColorMatrix type="matrix" values="0 0 0 0 0.0386285 0 0 0 0 0.0648437 0 0 0 0 0.104167 0 0 0 0.13 0"/>
<feBlend mode="normal" in2="BackgroundImageFix" result="effect1_dropShadow"/>
<feBlend mode="normal" in="SourceGraphic" in2="effect1_dropShadow" result="shape"/>
</filter>
<filter id="filter1_d" x="257.313" y="65.3745" width="76.1891" height="88.7754" filterUnits="userSpaceOnUse" color-interpolation-filters="sRGB">
<feFlood flood-opacity="0" result="BackgroundImageFix"/>
<feColorMatrix in="SourceAlpha" type="matrix" values="0 0 0 0 0 0 0 0 0 0 0 0 0 0 0 0 0 0 127 0"/>
<feOffset dy="4"/>
<feGaussianBlur stdDeviation="17"/>
<feColorMatrix type="matrix" values="0 0 0 0 0.0386285 0 0 0 0 0.0648437 0 0 0 0 0.104167 0 0 0 0.13 0"/>
<feBlend mode="normal" in2="BackgroundImageFix" result="effect1_dropShadow"/>
<feBlend mode="normal" in="SourceGraphic" in2="effect1_dropShadow" result="shape"/>
</filter>
<filter id="filter2_d" x="242.482" y="52.6575" width="89.567" height="111.363" filterUnits="userSpaceOnUse" color-interpolation-filters="sRGB">
<feFlood flood-opacity="0" result="BackgroundImageFix"/>
<feColorMatrix in="SourceAlpha" type="matrix" values="0 0 0 0 0 0 0 0 0 0 0 0 0 0 0 0 0 0 127 0"/>
<feOffset dy="4"/>
<feGaussianBlur stdDeviation="17"/>
<feColorMatrix type="matrix" values="0 0 0 0 0.0386285 0 0 0 0 0.0648437 0 0 0 0 0.104167 0 0 0 0.13 0"/>
<feBlend mode="normal" in2="BackgroundImageFix" result="effect1_dropShadow"/>
<feBlend mode="normal" in="SourceGraphic" in2="effect1_dropShadow" result="shape"/>
</filter>
<filter id="filter3_d" x="146.68" y="65.3745" width="76.1891" height="88.7754" filterUnits="userSpaceOnUse" color-interpolation-filters="sRGB">
<feFlood flood-opacity="0" result="BackgroundImageFix"/>
<feColorMatrix in="SourceAlpha" type="matrix" values="0 0 0 0 0 0 0 0 0 0 0 0 0 0 0 0 0 0 127 0"/>
<feOffset dy="4"/>
<feGaussianBlur stdDeviation="17"/>
<feColorMatrix type="matrix" values="0 0 0 0 0.0386285 0 0 0 0 0.0648437 0 0 0 0 0.104167 0 0 0 0.13 0"/>
<feBlend mode="normal" in2="BackgroundImageFix" result="effect1_dropShadow"/>
<feBlend mode="normal" in="SourceGraphic" in2="effect1_dropShadow" result="shape"/>
</filter>
<filter id="filter4_d" x="147.981" y="52.6575" width="89.567" height="111.363" filterUnits="userSpaceOnUse" color-interpolation-filters="sRGB">
<feFlood flood-opacity="0" result="BackgroundImageFix"/>
<feColorMatrix in="SourceAlpha" type="matrix" values="0 0 0 0 0 0 0 0 0 0 0 0 0 0 0 0 0 0 127 0"/>
<feOffset dy="4"/>
<feGaussianBlur stdDeviation="17"/>
<feColorMatrix type="matrix" values="0 0 0 0 0.0386285 0 0 0 0 0.0648437 0 0 0 0 0.104167 0 0 0 0.13 0"/>
<feBlend mode="normal" in2="BackgroundImageFix" result="effect1_dropShadow"/>
<feBlend mode="normal" in="SourceGraphic" in2="effect1_dropShadow" result="shape"/>
</filter>
<linearGradient id="paint0_linear" x1="390.781" y1="81.3213" x2="393.428" y2="257.189" gradientUnits="userSpaceOnUse">
<stop stop-color="#FFEFE0"/>
<stop offset="1" stop-color="#FFBE99"/>
</linearGradient>
<linearGradient id="paint1_linear" x1="242.275" y1="123.208" x2="229.875" y2="371.546" gradientUnits="userSpaceOnUse">
<stop stop-color="#FF9F81"/>
<stop offset="1" stop-color="#F53838"/>
</linearGradient>
<linearGradient id="paint2_linear" x1="227.21" y1="210.483" x2="108.538" y2="267.358" gradientUnits="userSpaceOnUse">
<stop offset="0.0677966" stop-color="#FFEFE0"/>
<stop offset="1" stop-color="#FFBE99"/>
</linearGradient>
<linearGradient id="paint3_linear" x1="238.204" y1="95.9754" x2="240.284" y2="162.361" gradientUnits="userSpaceOnUse">
<stop stop-color="#FFEFE0"/>
<stop offset="1" stop-color="#FFBE99"/>
</linearGradient>
<linearGradient id="paint4_linear" x1="238.204" y1="95.9754" x2="235.29" y2="171.606" gradientUnits="userSpaceOnUse">
<stop stop-color="#FFEFE0"/>
<stop offset="1" stop-color="#FFBE99"/>
</linearGradient>
<linearGradient id="paint5_linear" x1="241.661" y1="60.5831" x2="241.661" y2="140.302" gradientUnits="userSpaceOnUse">
<stop stop-color="#FFEFE0"/>
<stop offset="1" stop-color="#FFBE99"/>
</linearGradient>
<linearGradient id="paint6_linear" x1="274.829" y1="149.235" x2="216.724" y2="357.729" gradientUnits="userSpaceOnUse">
<stop offset="0.0171777" stop-color="white"/>
<stop offset="1" stop-color="#D7D7D7"/>
</linearGradient>
<linearGradient id="paint7_linear" x1="132.371" y1="87.055" x2="132.371" y2="104.945" gradientUnits="userSpaceOnUse">
<stop stop-color="#FFE89E"/>
<stop offset="1" stop-color="#FFBF1A"/>
</linearGradient>
<linearGradient id="paint8_linear" x1="104.93" y1="66.5746" x2="104.93" y2="78.4824" gradientUnits="userSpaceOnUse">
<stop stop-color="#FFE89E"/>
<stop offset="1" stop-color="#FFBF1A"/>
</linearGradient>
<linearGradient id="paint9_linear" x1="62.1601" y1="48.6507" x2="62.1601" y2="66.5403" gradientUnits="userSpaceOnUse">
<stop stop-color="#FFE89E"/>
<stop offset="1" stop-color="#FFBF1A"/>
</linearGradient>
<linearGradient id="paint10_linear" x1="66.6494" y1="124.249" x2="66.6494" y2="150.569" gradientUnits="userSpaceOnUse">
<stop stop-color="#FFE89E"/>
<stop offset="1" stop-color="#FFBF1A"/>
</linearGradient>
<linearGradient id="paint11_linear" x1="346.409" y1="87.055" x2="346.409" y2="104.945" gradientUnits="userSpaceOnUse">
<stop stop-color="#FFE89E"/>
<stop offset="1" stop-color="#FFBF1A"/>
</linearGradient>
<linearGradient id="paint12_linear" x1="373.85" y1="66.5746" x2="373.85" y2="78.4824" gradientUnits="userSpaceOnUse">
<stop stop-color="#FFE89E"/>
<stop offset="1" stop-color="#FFBF1A"/>
</linearGradient>
<linearGradient id="paint13_linear" x1="416.62" y1="48.6507" x2="416.62" y2="66.5403" gradientUnits="userSpaceOnUse">
<stop stop-color="#FFE89E"/>
<stop offset="1" stop-color="#FFBF1A"/>
</linearGradient>
<linearGradient id="paint14_linear" x1="412.131" y1="124.249" x2="412.131" y2="150.569" gradientUnits="userSpaceOnUse">
<stop stop-color="#FFE89E"/>
<stop offset="1" stop-color="#FFBF1A"/>
</linearGradient>
</defs>
</svg>
